<svg width="37" height="47" viewBox="0 0 37 47" fill="none" xmlns="http://www.w3.org/2000/svg">
<path d="M18.5 10.2534C16.8833 10.2534 15.3028 10.7295 13.9585 11.6214C12.6143 12.5134 11.5665 13.7811 10.9478 15.2644C10.3291 16.7476 10.1672 18.3797 10.4826 19.9543C10.7981 21.5289 11.5766 22.9753 12.7198 24.1105C13.863 25.2457 15.3196 26.0188 16.9053 26.332C18.4909 26.6452 20.1345 26.4845 21.6282 25.8701C23.1219 25.2557 24.3986 24.2153 25.2968 22.8804C26.195 21.5456 26.6744 19.9762 26.6744 18.3707C26.6744 16.2179 25.8132 14.1532 24.2802 12.6309C22.7472 11.1086 20.668 10.2534 18.5 10.2534ZM18.5 23.9247C17.3938 23.9247 16.3125 23.5989 15.3927 22.9886C14.4729 22.3784 13.756 21.511 13.3327 20.4961C12.9094 19.4813 12.7986 18.3646 13.0144 17.2872C13.2303 16.2098 13.7629 15.2202 14.5451 14.4435C15.3273 13.6668 16.3239 13.1378 17.4089 12.9235C18.4938 12.7092 19.6184 12.8192 20.6404 13.2395C21.6623 13.6599 22.5359 14.3718 23.1504 15.2851C23.765 16.1985 24.093 17.2723 24.093 18.3707C24.093 19.8437 23.5038 21.2564 22.4549 22.2979C21.406 23.3395 19.9834 23.9247 18.5 23.9247ZM18.5 0C13.5952 0.0056535 8.893 1.94295 5.42481 5.3869C1.95662 8.83086 0.00569328 13.5002 0 18.3707C0 24.9735 3.08477 31.9864 8.92087 38.6511C11.555 41.674 14.5196 44.3966 17.76 46.7684C17.9769 46.9192 18.2353 47 18.5 47C18.7647 47 19.0231 46.9192 19.24 46.7684C22.4804 44.3966 25.445 41.674 28.0791 38.6511C33.9152 31.9864 37 24.9799 37 18.3707C36.9943 13.5002 35.0434 8.83086 31.5752 5.3869C28.107 1.94295 23.4048 0.0056535 18.5 0ZM18.5 44.1132C15.2733 41.6396 2.5814 31.1063 2.5814 18.3707C2.5814 14.1783 4.25853 10.1577 7.24385 7.19323C10.2292 4.22877 14.2781 2.56336 18.5 2.56336C22.7219 2.56336 26.7708 4.22877 29.7562 7.19323C32.7415 10.1577 34.4186 14.1783 34.4186 18.3707C34.4186 31.1063 21.7267 41.6396 18.5 44.1132Z" fill="#E3DFD5"/>
</svg>
