<svg width="51" height="46" viewBox="0 0 51 46" fill="none" xmlns="http://www.w3.org/2000/svg">
<path fill-rule="evenodd" clip-rule="evenodd" d="M13.0239 33.7978C17.4309 38.7172 21.9141 43.287 23.9949 45.3634C24.4499 45.7938 24.9907 46 25.5 46C26.0409 46 26.5634 45.8124 26.9897 45.3789L26.9964 45.3721C29.0733 43.2998 33.5531 38.7341 37.9613 33.8128C42.3989 28.8588 46.666 23.6505 48.4073 20.2629L48.4081 20.2613C50.7315 15.7609 50.5776 10.1272 48.0825 5.91006C45.8703 2.18565 42.0349 0.0400391 37.536 0.0400391C31.8141 0.0400391 28.2874 3.03865 26.344 6.09644L25.5 7.42433L24.6561 6.09644C22.7126 3.03865 19.1859 0.0400391 13.464 0.0400391C8.96522 0.0400391 5.12978 2.18561 2.91759 5.90995C0.42243 10.1272 0.268569 15.7608 2.59194 20.2613L2.59372 20.2648C4.31493 23.6309 8.5808 28.838 13.0239 33.7978ZM38.5704 30.2018C42.2952 25.9248 45.4032 21.9598 46.7647 19.296C48.7641 15.4017 48.6469 10.5576 46.5 6.93201C44.6163 3.7257 41.4043 2.00004 37.6147 2.00004C33.0846 2.00004 30.2996 4.08723 28.6668 6.2348C27.8609 7.2948 27.3406 8.36025 27.0163 9.17941C26.9068 9.45589 26.8191 9.70585 26.7498 9.92004H24.4023C24.1213 9.07151 23.5394 7.64373 22.4591 6.23225C20.8191 4.08954 18.0361 2.00004 13.5427 2.00004H13.464C9.67595 2.00004 6.46492 3.72434 4.58091 6.92823C2.38722 10.5635 2.31876 15.4105 4.31446 19.2968L4.31503 19.2979C5.67538 21.939 8.77164 25.9024 12.4928 30.1859C16.2377 34.4967 20.6885 39.2133 24.8297 43.3846L25.5411 44.1011L26.2507 43.3829C30.3705 39.2133 34.8207 34.5074 38.5704 30.2018Z" fill="white"/>
</svg>
