<svg width="51" height="46" viewBox="0 0 51 46" fill="none" xmlns="http://www.w3.org/2000/svg">
<path fill-rule="evenodd" clip-rule="evenodd" d="M13.024 33.7968C17.4309 38.7162 21.9141 43.286 23.995 45.3624C24.4499 45.7928 24.9907 45.9991 25.5 45.9991C26.0409 45.9991 26.5634 45.8114 26.9897 45.3779L26.9964 45.3711C29.0734 43.2988 33.5531 38.7331 37.9613 33.8118C42.3989 28.8578 46.666 23.6496 48.4073 20.2619L48.4081 20.2603C50.7315 15.7599 50.5777 10.1263 48.0825 5.90908C45.8704 2.18467 42.0349 0.0390625 37.536 0.0390625C31.8141 0.0390625 28.2874 3.03768 26.344 6.09546L25.5 7.42335L24.6561 6.09546C22.7126 3.03768 19.1859 0.0390625 13.464 0.0390625C8.96523 0.0390625 5.1298 2.18463 2.9176 5.90898C0.422445 10.1262 0.268584 15.7599 2.59195 20.2603L2.59374 20.2638C4.31494 23.6299 8.58081 28.837 13.024 33.7968Z" fill="white"/>
</svg>
