<svg width="35" height="35" viewBox="0 0 35 35" fill="none" xmlns="http://www.w3.org/2000/svg">
<path fill-rule="evenodd" clip-rule="evenodd" d="M10.1332 25.1206C12.7354 28.0106 15.3826 30.6952 16.6113 31.9151C16.8799 32.1679 17.1993 32.2891 17.5 32.2891C17.8194 32.2891 18.1279 32.1788 18.3796 31.9242L18.3835 31.9202C19.6099 30.7027 22.2551 28.0206 24.858 25.1295C27.4783 22.2191 29.9979 19.1595 31.0261 17.1693L31.0265 17.1684C32.3984 14.5245 32.3076 11.215 30.8343 8.73751C29.5281 6.54954 27.2633 5.28906 24.6069 5.28906C21.2283 5.28906 19.1459 7.05065 17.9983 8.847L17.5 9.62709L17.0017 8.847C15.8541 7.05065 13.7717 5.28906 10.3931 5.28906C7.73668 5.28906 5.47197 6.54952 4.16573 8.73745C2.69242 11.2149 2.60157 14.5245 3.97345 17.1684L3.9745 17.1704C4.99082 19.1479 7.50969 22.2069 10.1332 25.1206ZM25.2177 23.0081C27.417 20.4955 29.2522 18.1662 30.0562 16.6013C31.2367 14.3136 31.1675 11.4678 29.8999 9.33787C28.7876 7.45427 26.891 6.4405 24.6534 6.4405C21.9785 6.4405 20.334 7.66665 19.3699 8.92828C18.894 9.551 18.5868 10.1769 18.3953 10.6581C18.3307 10.8206 18.2789 10.9674 18.238 11.0932H16.8518C16.6859 10.5948 16.3423 9.75598 15.7044 8.92679C14.7361 7.66801 13.0928 6.4405 10.4395 6.4405H10.3931C8.15635 6.4405 6.26033 7.45347 5.14788 9.33565C3.85257 11.4712 3.81214 14.3187 4.99055 16.6018L4.99088 16.6025C5.79413 18.154 7.62238 20.4824 9.8196 22.9987C12.0309 25.5312 14.6589 28.3021 17.1042 30.7526L17.5242 31.1735L17.9432 30.7516C20.3758 28.3021 23.0036 25.5375 25.2177 23.0081Z" fill="white"/>
</svg>
