<svg width="48" height="48" viewBox="0 0 48 48" fill="none" xmlns="http://www.w3.org/2000/svg">
<path fill-rule="evenodd" clip-rule="evenodd" d="M46.432 46.4347C45.3884 47.4782 44.1333 48 42.6667 48H5.33334C3.86489 48.0018 2.60889 47.48 1.56534 46.4347C0.52178 45.3893 4.52747e-06 44.1333 4.52747e-06 42.6667V5.33333C-0.00177325 3.86844 0.520002 2.61333 1.56534 1.568C2.61067 0.522667 3.86667 0 5.33334 0H42.6667C44.1316 0.00177778 45.3867 0.524445 46.432 1.568C47.4773 2.61156 48 3.86667 48 5.33333V42.6667C47.9982 44.1351 47.4756 45.3911 46.432 46.4347ZM5.33333 40L36.5 40L26.5 29.5L21.5 36L14.5 28.5L5.33333 40ZM41.926 7.40662C41.9597 7.45984 41.9777 7.52105 41.9783 7.58361L42 13.6423C42.0005 13.7516 41.9473 13.8548 41.8552 13.9203C41.7623 13.9849 41.6456 14.0025 41.5391 13.9661L35.661 12.0086C35.6005 11.9883 35.5468 11.9521 35.5059 11.904C35.4649 11.856 35.4383 11.7978 35.4288 11.7359C35.4193 11.6741 35.4274 11.6108 35.4522 11.5532C35.477 11.4955 35.5175 11.4456 35.5693 11.4088L36.9433 10.4469L37.1746 10.2843C36.3517 9.65112 35.3182 9.26815 34.1914 9.26815C31.5214 9.26815 29.3491 11.3912 29.3491 14.0005C29.3491 16.6097 31.5214 18.7328 34.1914 18.7328C35.8003 18.7328 37.3 17.9519 38.2051 16.644C38.2702 16.5503 38.3705 16.4856 38.4842 16.4639C38.598 16.4423 38.7158 16.4654 38.8121 16.5284L40.8595 17.9174C40.9042 17.9468 40.9424 17.9845 40.9721 18.0284C41.0017 18.0722 41.0223 18.1214 41.0325 18.1731C41.0427 18.2247 41.0423 18.2778 41.0315 18.3293C41.0206 18.3809 40.9995 18.4298 40.9693 18.4733C40.2201 19.5593 39.2096 20.4489 38.0264 21.0638C36.8433 21.6788 35.5238 22.0002 34.1838 22C29.6713 22 26 18.411 26 14C26 9.58903 29.6711 6 34.1838 6C36.434 6 38.4647 6.90256 39.9443 8.34594L40.0524 8.26984L41.4255 7.30767C41.4776 7.27141 41.539 7.24983 41.6028 7.24526C41.6666 7.2407 41.7305 7.25333 41.7875 7.28178C41.8445 7.31023 41.8924 7.35341 41.926 7.40662Z" fill="#C00202"/>
</svg>
