<svg width="38" height="38" viewBox="0 0 38 38" fill="none" xmlns="http://www.w3.org/2000/svg">
<path d="M33 13.624V25.3281C33.0001 26.5214 32.5554 27.6696 31.7573 28.537C30.9591 29.4043 29.8679 29.9253 28.7076 29.9928L28.45 30H9.55C8.38781 30.0001 7.26964 29.5435 6.42488 28.724C5.58011 27.9044 5.0728 26.784 5.007 25.5926L5 25.3281V13.624L18.5128 20.892C18.6631 20.9728 18.8303 21.0151 19 21.0151C19.1697 21.0151 19.3369 20.9728 19.4872 20.892L33 13.624ZM9.55 7H28.45C29.5778 6.99986 30.6655 7.42981 31.5021 8.20645C32.3386 8.98309 32.8645 10.0511 32.9776 11.2032L19 18.7214L5.0224 11.2032C5.13093 10.0968 5.62027 9.06643 6.40245 8.29729C7.18463 7.52815 8.20835 7.07071 9.2896 7.00719L9.55 7Z" fill="#C00202"/>
</svg>
