<svg width="83" height="105" viewBox="0 0 83 105" fill="none" xmlns="http://www.w3.org/2000/svg">
<path fill-rule="evenodd" clip-rule="evenodd" d="M12.0551 12.4152C19.7622 4.762 30.2116 0.456899 41.1111 0.444336C52.0106 0.456899 62.46 4.762 70.1671 12.4152C77.8742 20.0685 82.2096 30.4449 82.2222 41.2682C82.2222 55.9552 75.3672 71.5252 62.3981 86.3357C56.5445 93.0533 49.9565 99.1034 42.7556 104.374C42.2735 104.709 41.6994 104.889 41.1111 104.889C40.5228 104.889 39.9487 104.709 39.4667 104.374C32.2657 99.1034 25.6777 93.0533 19.8242 86.3357C6.85504 71.5252 0 55.941 0 41.2682C0.0126517 30.4449 4.34805 20.0685 12.0551 12.4152ZM41.1111 58.2221C50.3159 58.2221 57.7778 50.7602 57.7778 41.5555C57.7778 32.3507 50.3159 24.8888 41.1111 24.8888C31.9064 24.8888 24.4444 32.3507 24.4444 41.5555C24.4444 50.7602 31.9064 58.2221 41.1111 58.2221Z" fill="#C00202"/>
</svg>
