<svg width="35" height="35" viewBox="0 0 35 35" fill="none" xmlns="http://www.w3.org/2000/svg">
<path d="M17.5 29.2891C19.9723 29.2891 22.389 28.556 24.4446 27.1824C26.5002 25.8089 28.1024 23.8567 29.0485 21.5726C29.9946 19.2885 30.2421 16.7752 29.7598 14.3504C29.2775 11.9257 28.087 9.69839 26.3388 7.95023C24.5907 6.20208 22.3634 5.01157 19.9386 4.52925C17.5139 4.04694 15.0005 4.29448 12.7165 5.24057C10.4324 6.18667 8.48015 7.78883 7.10663 9.84444C5.73311 11.9001 5 14.3168 5 16.7891C5 18.8557 5.5 20.803 6.38889 22.521L5 29.2891L11.7681 27.9002C13.4847 28.7877 15.4347 29.2891 17.5 29.2891Z" stroke="white" stroke-width="1.5" stroke-linecap="round" stroke-linejoin="round"/>
</svg>
