<svg width="46" height="46" viewBox="0 0 46 46" fill="none" xmlns="http://www.w3.org/2000/svg">
<path d="M36.8059 29.8608L40.8385 33.8934C41.0633 34.1172 43.6938 36.8349 43.8156 37.1279C43.9373 37.4208 44 37.7349 44 38.0521C44 38.3693 43.9373 38.6834 43.8156 38.9763C43.6938 39.2693 43.5154 39.5353 43.2906 39.759C40.8264 42.2237 37.5558 43.7166 34.0793 43.9636C30.6029 44.2106 27.154 43.195 24.3662 41.1034L20.1981 37.9754C15.584 34.5148 11.4852 30.416 8.02465 25.8019L4.8966 21.6338C2.80501 18.846 1.78944 15.3971 2.03641 11.9207C2.28337 8.44423 3.77629 5.17358 6.24097 2.70942C6.46474 2.48458 6.73073 2.30616 7.02366 2.18442C7.31659 2.06267 7.63068 2 7.9479 2C8.26512 2 8.57921 2.06267 8.87214 2.18442C9.16507 2.30616 9.43106 2.48458 9.65483 2.70942L16.6625 9.71709C17.1586 10.2134 17.4373 10.8864 17.4373 11.5881C17.4373 12.2898 17.1586 12.9628 16.6625 13.4591L13.9605 16.1611C13.7496 16.3699 13.6104 16.6402 13.5628 16.9331C13.5153 17.226 13.5619 17.5265 13.6959 17.7913C16.8356 24.0719 21.9281 29.1644 28.2087 32.3041C28.4735 32.4381 28.774 32.4847 29.0669 32.4372C29.3598 32.3896 29.6301 32.2504 29.8389 32.0395L32.5383 29.3401C32.784 29.0941 33.0759 28.8989 33.3972 28.7657C33.7184 28.6325 34.0628 28.564 34.4106 28.564C34.7584 28.564 35.1027 28.6325 35.424 28.7657C35.7453 28.8989 36.0371 29.0941 36.2829 29.3401L36.8059 29.8608Z" stroke="#E3DFD5" stroke-width="2.5"/>
</svg>
