<svg width="36" height="36" viewBox="0 0 36 36" fill="none" xmlns="http://www.w3.org/2000/svg">
<path fill-rule="evenodd" clip-rule="evenodd" d="M27.2762 24.5847C29.6508 21.522 30.77 17.6693 30.406 13.8104C30.0419 9.95152 28.222 6.37632 25.3166 3.81214C22.4111 1.24796 18.6383 -0.112584 14.7656 0.00729947C10.893 0.127183 7.21148 1.71849 4.47004 4.45748C1.72621 7.19837 0.130336 10.8828 0.00763661 14.7599C-0.115062 18.637 1.24465 22.415 3.80967 25.3241C6.3747 28.2331 9.952 30.0542 13.8126 30.4163C17.6732 30.7783 21.5265 29.6541 24.5873 27.2727L24.6692 27.3585L32.7473 35.4417C32.9242 35.6187 33.1343 35.7591 33.3655 35.8549C33.5966 35.9507 33.8444 36 34.0946 36C34.3448 36 34.5926 35.9507 34.8238 35.8549C35.0549 35.7591 35.265 35.6187 35.4419 35.4417C35.6189 35.2647 35.7592 35.0546 35.855 34.8233C35.9507 34.592 36 34.3442 36 34.0939C36 33.8435 35.9507 33.5957 35.855 33.3644C35.7592 33.1331 35.6189 32.923 35.4419 32.746L27.3619 24.6647L27.2762 24.5847ZM23.3228 7.15317C24.398 8.2114 25.2531 9.47212 25.8388 10.8626C26.4245 12.2531 26.7292 13.7459 26.7354 15.2547C26.7415 16.7636 26.449 18.2588 25.8746 19.654C25.3002 21.0493 24.4554 22.3169 23.3889 23.3839C22.3224 24.4508 21.0552 25.296 19.6605 25.8706C18.2659 26.4452 16.7713 26.7378 15.263 26.7317C13.7547 26.7255 12.2626 26.4207 10.8726 25.8348C9.48268 25.2488 8.22246 24.3934 7.16465 23.3178C5.0507 21.1683 3.87142 18.2702 3.8837 15.2547C3.89597 12.2393 5.0988 9.35095 7.23018 7.21872C9.36156 5.08649 12.2488 3.88318 15.263 3.8709C18.2772 3.85862 21.1742 5.03837 23.3228 7.15317Z" fill="#C00202"/>
</svg>
