<svg xmlns="http://www.w3.org/2000/svg"
      xmlns:xlink="http://www.w3.org/1999/xlink">
      <style>:root>svg{display:none}:root>svg:target{display:block}</style>

      <svg id="burger" viewBox="0 0 54 14"  xmlns="http://www.w3.org/2000/svg">
            <path d="M0 2H44" stroke-width="3"/>
            <path d="M10 12H54" stroke-width="3"/>
      </svg>


      <svg id="plus" viewBox="0 0 41 41" xmlns="http://www.w3.org/2000/svg">
            <path fill-rule="evenodd" clip-rule="evenodd" d="M22.2447 0.720215H18.2667V18.621H0.365967V22.5989H18.2662V18.6218H22.2441V22.5998H18.2667V40.4996H22.2447V22.5989H40.1454V18.621H22.2447V0.720215Z" />
      </svg>
      <svg id="minus" viewBox="0 0 86 10" xmlns="http://www.w3.org/2000/svg">
            <path fill-rule="evenodd" clip-rule="evenodd" d="M47.3 0.699219L38.7 0.699417H0V9.29942H38.6992V0.700394H47.2992V9.29942H86V0.699417H47.3V0.699219Z" />
      </svg>
      <svg id="add" viewBox="0 0 64 64" xmlns="http://www.w3.org/2000/svg">
            <path d="M64 0H0V64H64V0ZM49.7778 35.5556H35.5556V49.7778H28.4444V35.5556H14.2222V28.4444H28.4444V14.2222H35.5556V28.4444H49.7778V35.5556Z"/>
      </svg>
      <svg id="remove" viewBox="0 0 24 25"  xmlns="http://www.w3.org/2000/svg">
            <path fill-rule="evenodd" clip-rule="evenodd" d="M10.1306 2.23277C10.2233 2.19812 10.3642 2.15811 10.5568 2.12095C11.0302 2.03732 11.5103 1.9969 11.991 2.00019V2.00021H11.9979C12.5362 2.00021 13.0419 2.04472 13.432 2.11961C13.6273 2.1571 13.7698 2.19756 13.8633 2.23262C13.8964 2.24501 13.9185 2.25493 13.9315 2.26129C14.3366 2.60138 14.9416 2.56768 15.306 2.17606C15.6822 1.77172 15.6594 1.13897 15.2551 0.762762C15.0393 0.562027 14.777 0.439192 14.5651 0.3598C14.3367 0.274188 14.0791 0.207318 13.8091 0.155475C13.2695 0.0518851 12.6352 0.000392437 12.0013 0.000208974C11.3976 -0.00371069 10.7948 0.0474101 10.2004 0.152938L10.2004 0.152849L10.1872 0.155376C9.91644 0.207205 9.65873 0.274018 9.43048 0.359315C9.21938 0.438205 8.95665 0.560622 8.74093 0.761206C8.33647 1.13728 8.31346 1.77003 8.68954 2.17449C9.05344 2.56585 9.65767 2.60006 10.0628 2.26114C10.0759 2.25482 10.0979 2.24501 10.1306 2.23277ZM0 5H24L24.0013 9C23.2941 9 22.6158 9.28095 22.1157 9.78105C21.6156 10.2811 21.3347 10.9594 21.3347 11.6667V17C21.3347 20.7707 21.3347 22.6573 20.1613 23.828C18.9907 25 17.1053 25 13.3333 25H10.6667C6.896 25 5.00933 25 3.83867 23.828C2.66667 22.6573 2.66667 20.7707 2.66667 17V11.6667C2.66667 10.9594 2.38572 10.2811 1.88562 9.78105C1.38552 9.28095 0.707244 9 0 9V5ZM9.60948 10.7239C9.85952 10.9739 10 11.313 10 11.6667V18.3333C10 18.687 9.85952 19.0261 9.60948 19.2761C9.35943 19.5262 9.02029 19.6667 8.66667 19.6667C8.31304 19.6667 7.97391 19.5262 7.72386 19.2761C7.47381 19.0261 7.33333 18.687 7.33333 18.3333V11.6667C7.33333 11.313 7.47381 10.9739 7.72386 10.7239C7.97391 10.4738 8.31304 10.3333 8.66667 10.3333C9.02029 10.3333 9.35943 10.4738 9.60948 10.7239ZM16.2761 10.7239C16.5262 10.9739 16.6667 11.313 16.6667 11.6667V18.3333C16.6667 18.687 16.5262 19.0261 16.2761 19.2761C16.0261 19.5262 15.687 19.6667 15.3333 19.6667C14.9797 19.6667 14.6406 19.5262 14.3905 19.2761C14.1405 19.0261 14 18.687 14 18.3333V11.6667C14 11.313 14.1405 10.9739 14.3905 10.7239C14.6406 10.4738 14.9797 10.3333 15.3333 10.3333C15.687 10.3333 16.0261 10.4738 16.2761 10.7239Z" />
      </svg>

      <svg id="arrow-prev" viewBox="0 0 80 80" xmlns="http://www.w3.org/2000/svg">
            <path fill-rule="evenodd" clip-rule="evenodd" d="M7.4078 33.1559L0.805017 39.8729L7.52256 46.4762L14.1253 39.7591L40.9955 66.1721L34.3922 72.8897L0.804496 39.8734L7.40776 33.1558L7.4078 33.1559ZM7.4078 33.1559L33.8213 6.2852L40.5389 12.8885L14.1253 39.7591L7.4078 33.1559Z" />
            <rect x="13.8486" y="35.0039" width="61.2273" height="9.41958" transform="rotate(-0.491546 13.8486 35.0039)" />
      </svg>


</svg>



