<svg width="38" height="38" viewBox="0 0 38 38" fill="none" xmlns="http://www.w3.org/2000/svg">
<path d="M32.1877 6.23838C32.1877 6.23838 35.2402 5.06967 34.9848 7.90775C34.9008 9.07646 34.1378 13.1673 33.5438 17.5914L31.5088 30.698C31.5088 30.698 31.3391 32.618 29.8124 32.9521C28.2865 33.2853 25.997 31.7834 25.5727 31.4493C25.2332 31.1986 19.213 27.4418 17.0932 25.6058C16.4992 25.1044 15.8203 24.1031 17.178 22.9343L26.0818 14.586C27.0993 13.5831 28.1168 11.2457 23.8771 14.0846L12.0048 22.0148C12.0048 22.0148 10.6479 22.8503 8.1045 22.0989L2.59188 20.4288C2.59188 20.4288 0.55686 19.1767 4.03368 17.9247C12.514 14.0012 22.9444 9.99445 32.1869 6.23761" fill="#C00202"/>
</svg>
