<svg width="43" height="41" viewBox="0 0 43 41" fill="none" xmlns="http://www.w3.org/2000/svg">
<path d="M0 17.3518L1.54502 12.479L16.6387 17.4707L19.8476 19.6099L18.8968 15.9256V0H23.7696V15.9256L22.8188 19.7288L25.9089 17.4707L41.1214 12.7167L42.5476 17.3518L27.4539 22.2246L23.8885 22.5811L26.7408 24.6015L36.011 37.556L31.9701 40.4083L22.5811 27.5727L21.2738 24.245L19.8476 27.5727L10.4586 40.5272L6.53664 37.6748L15.9256 24.7204L18.778 22.5811L15.2126 22.2246L0 17.3518Z" fill="white"/>
<path d="M18.5618 22.8535L20.0618 19.8535H23.0618L24.0618 22.8535L21.5618 24.3535L18.5618 22.8535Z" fill="#89020F" stroke="#89020F"/>
</svg>
