<svg width="260" height="66" viewBox="0 0 260 66" fill="none" xmlns="http://www.w3.org/2000/svg">
<path d="M136.359 -0.000244141H260L259.917 9.42477H146.01V26.731H257.855V36.2373H146.01V64.9186H136.359V-0.000244141Z" fill="black"/>
<path d="M0 0H112.836C115.255 0 117.482 0.595833 119.517 1.7875C121.606 2.97917 123.228 4.60417 124.383 6.66251C125.593 8.72085 126.198 10.9417 126.198 13.325V29.0063C126.198 32.3646 125.208 35.2084 123.228 37.5376C121.304 39.8667 118.774 41.3292 115.64 41.9251L127.682 65.0001H116.877L105 42.3313H9.65041V65.0001H0V0ZM111.103 32.9063C112.753 32.9063 114.073 32.3917 115.063 31.3625C116.107 30.3334 116.63 29.0063 116.63 27.3813V15.0313C116.63 13.2979 116.107 11.9438 115.063 10.9688C114.073 9.9396 112.781 9.42501 111.186 9.42501H9.65041V32.9063H111.103Z" fill="black"/>
<path d="M251.563 62.4808C251.642 62.8665 251.909 63.1995 252.365 63.4799C252.821 63.7516 253.491 63.8875 254.376 63.8875C255.016 63.8875 255.577 63.8305 256.059 63.7166C256.541 63.6026 256.782 63.423 256.782 63.1776C256.782 62.8971 256.418 62.6736 255.691 62.5071L252.168 61.7052C250.354 61.2933 249.446 60.452 249.446 59.1812C249.446 58.6992 249.569 58.2741 249.815 57.906C250.069 57.5292 250.415 57.2356 250.853 57.0252C251.291 56.8061 251.782 56.644 252.325 56.5388C252.869 56.4249 253.452 56.3679 254.074 56.3679C255.476 56.3679 256.637 56.6396 257.558 57.183C258.478 57.7176 258.995 58.4757 259.109 59.4572L256.519 59.5624C256.431 59.2469 256.177 58.9708 255.757 58.7342C255.336 58.4888 254.736 58.3661 253.956 58.3661C253.438 58.3661 253.013 58.4231 252.68 58.537C252.347 58.651 252.181 58.8087 252.181 59.0103C252.181 59.282 252.531 59.4967 253.233 59.6544L256.453 60.3643C257.487 60.5922 258.254 60.8989 258.754 61.2845C259.262 61.6702 259.516 62.2223 259.516 62.9409C259.516 63.9313 259.056 64.6718 258.136 65.1626C257.216 65.6446 255.958 65.8857 254.363 65.8857C250.963 65.8857 249.17 64.7726 248.986 62.5466L251.563 62.4808Z" fill="black"/>
<path d="M238.257 65.7296V56.5273H240.992V63.4947H246.96V65.7296H238.257Z" fill="black"/>
<path d="M225.606 65.7296V56.5273H234.979V58.657H228.34V60.0505H233.52V62.0487H228.34V63.5999H235.229V65.7296H225.606Z" fill="black"/>
<path d="M216.772 56.5273C218.577 56.5273 220.002 56.9261 221.044 57.7236C222.087 58.5212 222.609 59.6561 222.609 61.1285C222.609 62.6008 222.087 63.7358 221.044 64.5333C220.002 65.3308 218.577 65.7296 216.772 65.7296H211.566V56.5273H216.772ZM216.483 63.4947C217.596 63.4947 218.437 63.2932 219.007 62.89C219.585 62.4781 219.874 61.8909 219.874 61.1285C219.874 60.366 219.585 59.7832 219.007 59.38C218.437 58.9681 217.596 58.7622 216.483 58.7622H214.301V63.4947H216.483Z" fill="black"/>
<path d="M197.967 64.6236C196.889 63.7823 196.35 62.6167 196.35 61.1268C196.35 59.6369 196.889 58.4713 197.967 57.6299C199.045 56.7886 200.544 56.3679 202.463 56.3679C204.383 56.3679 205.881 56.7886 206.959 57.6299C208.037 58.4713 208.576 59.6369 208.576 61.1268C208.576 62.6167 208.037 63.7823 206.959 64.6236C205.881 65.465 204.383 65.8857 202.463 65.8857C200.544 65.8857 199.045 65.465 197.967 64.6236ZM199.966 59.2863C199.378 59.7421 199.085 60.3556 199.085 61.1268C199.085 61.898 199.378 62.5159 199.966 62.9804C200.561 63.4361 201.394 63.664 202.463 63.664C203.532 63.664 204.361 63.4361 204.948 62.9804C205.544 62.5159 205.842 61.898 205.842 61.1268C205.842 60.3556 205.544 59.7421 204.948 59.2863C204.361 58.8218 203.532 58.5896 202.463 58.5896C201.394 58.5896 200.561 58.8218 199.966 59.2863Z" fill="black"/>
<path d="M188.572 56.5273H193.357L193.344 65.7296H190.728V58.0128L188.007 65.7296H184.313L181.592 58.0128V65.7296H178.976V56.5273H183.761L186.193 64.1258L188.572 56.5273Z" fill="black"/>
</svg>
