<svg width="1310" height="339" viewBox="0 0 1310 339" fill="none" xmlns="http://www.w3.org/2000/svg">
<path d="M686.857 0H1309.16V21.9688H708.404V149.557H1299.45V171.525H708.404V337.558H686.857V0Z" fill="white"/>
<path d="M0 0H574.99C585.974 0 596.114 2.81649 605.408 8.44951C614.703 14.0825 622.026 21.6871 627.377 31.2632C632.728 40.5577 635.404 50.5563 635.404 61.259V141.529C635.404 158.429 630.053 172.511 619.35 183.777C608.647 195.043 594.706 201.239 577.525 202.366L643.431 338.403H619.35L553.444 202.789H21.9688V337.981H0V0ZM569.498 181.665C582.454 181.665 593.016 177.44 601.184 168.99C609.633 160.541 613.858 149.557 613.858 136.037V67.1737C613.858 53.3728 609.633 42.3884 601.184 34.2205C593.016 26.0527 582.595 21.9688 569.92 21.9688H21.9688V181.665H569.498Z" fill="white"/>
<path d="M1256.11 338.223C1255.18 338.223 1254.31 337.986 1253.51 337.51C1252.73 337.034 1252.12 336.407 1251.66 335.627C1251.2 334.828 1250.97 333.972 1250.97 333.059V331.404H1255.23V332.603C1255.23 333.021 1255.35 333.354 1255.6 333.601C1255.84 333.849 1256.17 333.972 1256.57 333.972H1296.74C1297.14 333.972 1297.45 333.858 1297.68 333.63C1297.93 333.383 1298.05 333.05 1298.05 332.631V331.404C1298.05 331.024 1297.93 330.72 1297.68 330.491C1297.43 330.244 1297.12 330.092 1296.74 330.035L1256.25 327.695C1255.26 327.581 1254.38 327.296 1253.6 326.839C1252.82 326.383 1252.18 325.765 1251.69 324.985C1251.21 324.186 1250.97 323.244 1250.97 322.16L1250.95 320.448C1250.93 319.535 1251.14 318.699 1251.57 317.938C1252.03 317.158 1252.64 316.54 1253.4 316.083C1254.18 315.627 1255.02 315.398 1255.91 315.398H1297.17C1298.08 315.398 1298.93 315.636 1299.71 316.112C1300.49 316.568 1301.1 317.196 1301.56 317.995C1302.04 318.775 1302.27 319.621 1302.27 320.534V322.103H1298.05V320.991C1298.05 320.553 1297.93 320.22 1297.68 319.992C1297.45 319.764 1297.14 319.65 1296.74 319.65H1256.54C1256.14 319.65 1255.82 319.773 1255.57 320.02C1255.34 320.249 1255.23 320.582 1255.23 321.019V322.075C1255.23 322.189 1255.24 322.303 1255.25 322.417C1255.27 322.531 1255.31 322.636 1255.37 322.731C1255.46 322.94 1255.61 323.111 1255.8 323.244C1256.01 323.359 1256.25 323.435 1256.54 323.473L1297.08 325.812C1298.11 325.964 1299.01 326.269 1299.79 326.725C1300.57 327.182 1301.18 327.79 1301.62 328.551C1302.05 329.312 1302.27 330.197 1302.27 331.205L1302.33 333.23C1302.33 334.181 1302.1 335.037 1301.65 335.798C1301.21 336.559 1300.61 337.158 1299.85 337.596C1299.11 338.014 1298.3 338.223 1297.42 338.223H1256.11Z" fill="white"/>
<path d="M1196.73 315.398H1200.96V334.115H1247.86V338.223H1196.73V315.398Z" fill="white"/>
<path d="M1141.9 315.398H1193.03V319.65H1146.18V324.814H1192.17V329.065H1146.18V333.972H1193.03V338.223H1141.9V315.398Z" fill="white"/>
<path d="M1086.79 315.398H1132.98C1133.87 315.398 1134.72 315.636 1135.52 316.112C1136.32 316.568 1136.95 317.196 1137.43 317.995C1137.91 318.794 1138.14 319.659 1138.14 320.591V333.002C1138.14 333.953 1137.9 334.828 1137.4 335.627C1136.93 336.426 1136.29 337.063 1135.49 337.539C1134.71 337.995 1133.87 338.223 1132.98 338.223H1086.79V315.398ZM1132.49 333.972C1132.91 333.972 1133.25 333.839 1133.49 333.573C1133.76 333.306 1133.89 332.964 1133.89 332.546V321.048C1133.87 320.629 1133.73 320.296 1133.46 320.049C1133.22 319.783 1132.89 319.65 1132.49 319.65H1091.04V333.972H1132.49Z" fill="white"/>
<path d="M1036.81 338.223C1035.91 338.223 1035.07 337.986 1034.27 337.51C1033.47 337.034 1032.83 336.397 1032.36 335.598C1031.88 334.8 1031.64 333.944 1031.64 333.031V320.591C1031.64 319.659 1031.88 318.794 1032.36 317.995C1032.83 317.196 1033.47 316.568 1034.27 316.112C1035.07 315.636 1035.91 315.398 1036.81 315.398H1077.86C1078.76 315.398 1079.59 315.636 1080.37 316.112C1081.17 316.587 1081.81 317.224 1082.28 318.023C1082.78 318.822 1083.03 319.678 1083.03 320.591V333.031C1083.03 333.982 1082.78 334.857 1082.28 335.655C1081.81 336.435 1081.17 337.063 1080.37 337.539C1079.57 337.995 1078.73 338.223 1077.83 338.223H1036.81ZM1077.38 333.972C1077.78 333.972 1078.11 333.839 1078.38 333.573C1078.64 333.306 1078.78 332.964 1078.78 332.546V321.076C1078.78 320.639 1078.64 320.296 1078.38 320.049C1078.13 319.783 1077.8 319.65 1077.38 319.65H1037.29C1036.89 319.65 1036.56 319.783 1036.29 320.049C1036.03 320.315 1035.89 320.658 1035.89 321.076V332.546C1035.89 332.964 1036.03 333.306 1036.29 333.573C1036.58 333.839 1036.91 333.972 1037.29 333.972H1077.38Z" fill="white"/>
<path d="M974.419 315.398H978.442L1001.07 328.951L1023.75 315.398H1027.91V338.223H1023.63V320.42L1001.84 333.43H1000.3L978.67 320.448V338.223H974.419V315.398Z" fill="white"/>
</svg>
