<svg width="369" height="32" viewBox="0 0 369 32" fill="none" xmlns="http://www.w3.org/2000/svg">
<path d="M0.627004 0.632791H69.9877V6.47493H6.46915V13.062H68.9683V18.9042H6.46915V32H0.627004V0.632791ZM80.5653 0.59358H134.635L143.731 32H137.575L135.379 24.1582H79.8203L77.4678 32H71.3904L80.5653 0.59358ZM133.694 18.3161L130.125 6.12205H85.0743L81.4279 18.3161H133.694ZM154.799 32C153.57 32 152.407 31.6733 151.309 31.0198C150.211 30.3663 149.336 29.4906 148.682 28.3928C148.029 27.2949 147.702 26.1186 147.702 24.864V7.72962C147.702 6.47493 148.029 5.29866 148.682 4.20081C149.336 3.10296 150.211 2.24036 151.309 1.61302C152.407 0.959532 153.557 0.632791 154.759 0.632791H211.22C212.449 0.632791 213.599 0.959532 214.671 1.61302C215.769 2.2665 216.644 3.14217 217.298 4.24002C217.977 5.33787 218.317 6.51414 218.317 7.76883V13.3757H212.475V8.39617C212.475 7.82111 212.292 7.36367 211.926 7.02386C211.56 6.65791 211.116 6.47493 210.593 6.47493H155.426C154.903 6.47493 154.459 6.65791 154.093 7.02386C153.727 7.36367 153.544 7.80804 153.544 8.35696V24.2366C153.544 24.6026 153.635 24.9424 153.818 25.256C154.001 25.5436 154.224 25.7658 154.485 25.9226C154.773 26.0794 155.086 26.1579 155.426 26.1579H210.554C211.103 26.1579 211.547 25.9749 211.887 25.6089C212.253 25.243 212.436 24.7855 212.436 24.2366L212.475 18.9434H218.317V24.9032C218.317 26.1579 217.977 27.3341 217.298 28.432C216.644 29.5037 215.769 30.3663 214.671 31.0198C213.599 31.6733 212.436 32 211.181 32H154.799ZM223.172 0.632791H293.434V6.47493H229.053V13.5718H292.258V19.4139H229.053V26.1579H293.434V32H223.172V0.632791ZM305.231 32C303.95 32 302.761 31.6733 301.663 31.0198C300.591 30.3663 299.742 29.5037 299.115 28.432C298.487 27.3341 298.173 26.1579 298.173 24.9032V22.629H304.016V24.2758C304.016 24.8509 304.186 25.3083 304.525 25.6481C304.865 25.988 305.31 26.1579 305.858 26.1579H361.065C361.614 26.1579 362.045 26.001 362.359 25.6873C362.698 25.3475 362.868 24.8901 362.868 24.315V22.629C362.868 22.1063 362.698 21.688 362.359 21.3744C362.019 21.0345 361.588 20.8254 361.065 20.747L305.427 17.5319C304.068 17.375 302.852 16.9829 301.781 16.3556C300.709 15.7283 299.833 14.8787 299.154 13.807C298.5 12.7092 298.173 11.4153 298.173 9.92533L298.134 7.57279C298.108 6.3181 298.396 5.16797 298.997 4.12239C299.624 3.05068 300.461 2.20115 301.506 1.57381C302.578 0.946463 303.728 0.632791 304.957 0.632791H361.653C362.908 0.632791 364.071 0.959532 365.142 1.61302C366.214 2.24036 367.064 3.10296 367.691 4.20081C368.345 5.27252 368.671 6.43572 368.671 7.69041V9.84691H362.868V8.31776C362.868 7.71655 362.698 7.25911 362.359 6.94544C362.045 6.63177 361.614 6.47493 361.065 6.47493H305.819C305.27 6.47493 304.826 6.64484 304.486 6.98465C304.172 7.29832 304.016 7.75576 304.016 8.35696V9.8077C304.016 9.96454 304.029 10.1214 304.055 10.2782C304.081 10.435 304.133 10.5788 304.212 10.7095C304.342 10.997 304.538 11.2323 304.8 11.4153C305.087 11.5721 305.427 11.6767 305.819 11.7289L361.535 14.9441C362.947 15.1532 364.188 15.5714 365.26 16.1988C366.332 16.8261 367.168 17.6626 367.769 18.7081C368.371 19.7537 368.671 20.9692 368.671 22.3546L368.75 25.1384C368.75 26.4454 368.436 27.6217 367.809 28.6672C367.207 29.7128 366.384 30.5362 365.339 31.1374C364.319 31.7125 363.208 32 362.006 32H305.231Z" fill="white"/>
</svg>
