<svg width="452" height="32" viewBox="0 0 452 32" fill="none" xmlns="http://www.w3.org/2000/svg">
<path d="M0.744631 0.632791H6.2731L37.3658 19.2571L68.537 0.632791H74.2615V32H68.3802V7.53358L38.4245 25.4129H36.3072L6.58677 7.57279V32H0.744631V0.632791ZM86.481 32C85.2524 32 84.0892 31.6733 82.9913 31.0198C81.8935 30.3663 81.0178 29.4906 80.3643 28.3928C79.7109 27.2949 79.3841 26.1186 79.3841 24.864V7.76883C79.3841 6.488 79.7109 5.29866 80.3643 4.20081C81.0178 3.10296 81.8935 2.24036 82.9913 1.61302C84.0892 0.959532 85.2524 0.632791 86.481 0.632791H142.903C144.131 0.632791 145.281 0.959532 146.353 1.61302C147.451 2.2665 148.327 3.14217 148.98 4.24002C149.66 5.33787 150 6.51414 150 7.76883V24.864C150 26.1709 149.66 27.3733 148.98 28.4712C148.327 29.5429 147.451 30.4055 146.353 31.059C145.255 31.6863 144.092 32 142.864 32H86.481ZM142.236 26.1579C142.785 26.1579 143.243 25.9749 143.608 25.6089C143.974 25.243 144.157 24.7725 144.157 24.1974V8.43538C144.157 7.83418 143.974 7.36367 143.608 7.02386C143.269 6.65791 142.811 6.47493 142.236 6.47493H87.1475C86.5986 6.47493 86.1411 6.65791 85.7752 7.02386C85.4092 7.38981 85.2263 7.86032 85.2263 8.43538V24.1974C85.2263 24.7725 85.4092 25.243 85.7752 25.6089C86.1673 25.9749 86.6247 26.1579 87.1475 26.1579H142.236ZM155.168 0.632791H218.648C219.876 0.632791 221.04 0.959532 222.137 1.61302C223.235 2.24036 224.111 3.10296 224.764 4.20081C225.418 5.29866 225.745 6.488 225.745 7.76883V24.8248C225.745 26.1317 225.405 27.3341 224.725 28.432C224.072 29.5298 223.196 30.4055 222.098 31.059C221.026 31.6863 219.876 32 218.648 32H155.168V0.632791ZM217.981 26.1579C218.556 26.1579 219.014 25.9749 219.354 25.6089C219.72 25.243 219.902 24.7725 219.902 24.1974V8.39617C219.876 7.82111 219.68 7.36367 219.314 7.02386C218.975 6.65791 218.53 6.47493 217.981 6.47493H161.011V26.1579H217.981ZM230.906 0.632791H301.169V6.47493H236.787V13.5718H299.992V19.4139H236.787V26.1579H301.169V32H230.906V0.632791ZM306.261 0.632791H312.064V26.3539H376.523V32H306.261V0.632791ZM387.861 32C386.58 32 385.391 31.6733 384.293 31.0198C383.221 30.3663 382.372 29.5037 381.744 28.432C381.117 27.3341 380.803 26.1579 380.803 24.9032V22.629H386.646V24.2758C386.646 24.8509 386.815 25.3083 387.155 25.6481C387.495 25.988 387.939 26.1579 388.488 26.1579H443.695C444.244 26.1579 444.675 26.001 444.989 25.6873C445.328 25.3475 445.498 24.8901 445.498 24.315V22.629C445.498 22.1063 445.328 21.688 444.989 21.3744C444.649 21.0345 444.217 20.8254 443.695 20.747L388.057 17.5319C386.698 17.375 385.482 16.9829 384.411 16.3556C383.339 15.7283 382.463 14.8787 381.784 13.807C381.13 12.7092 380.803 11.4153 380.803 9.92533L380.764 7.57279C380.738 6.3181 381.026 5.16797 381.627 4.12239C382.254 3.05068 383.091 2.20115 384.136 1.57381C385.208 0.946463 386.358 0.632791 387.587 0.632791H444.283C445.537 0.632791 446.701 0.959532 447.772 1.61302C448.844 2.24036 449.694 3.10296 450.321 4.20081C450.974 5.27252 451.301 6.43572 451.301 7.69041V9.84691H445.498V8.31776C445.498 7.71655 445.328 7.25911 444.989 6.94544C444.675 6.63177 444.244 6.47493 443.695 6.47493H388.449C387.9 6.47493 387.456 6.64484 387.116 6.98465C386.802 7.29832 386.646 7.75576 386.646 8.35696V9.8077C386.646 9.96454 386.659 10.1214 386.685 10.2782C386.711 10.435 386.763 10.5788 386.842 10.7095C386.972 10.997 387.168 11.2323 387.43 11.4153C387.717 11.5721 388.057 11.6767 388.449 11.7289L444.165 14.9441C445.577 15.1532 446.818 15.5714 447.89 16.1988C448.962 16.8261 449.798 17.6626 450.399 18.7081C451.001 19.7537 451.301 20.9692 451.301 22.3546L451.38 25.1384C451.38 26.4454 451.066 27.6217 450.439 28.6672C449.837 29.7128 449.014 30.5362 447.968 31.1374C446.949 31.7125 445.838 32 444.636 32H387.861Z" fill="white"/>
</svg>
