<svg width="320" height="64" viewBox="0 0 320 64" fill="none" xmlns="http://www.w3.org/2000/svg">
<g clip-path="url(#clip0_7659_3490)">
<path d="M145.064 55.896H156.556V32.12C156.556 19.56 148.544 12.892 138.904 12.892C132.524 12.892 127.704 15.66 124.232 19.492H122.672C120.052 16.084 115.516 12.892 108.784 12.892C102.676 12.892 97.796 15.588 95.244 18.712H93.684V14.1H82.98V55.896H94.4V34.04C94.4 26.584 96.6 24.032 104.252 24.032C111.904 24.032 114.028 26.584 114.028 34.04V55.892H125.524V34.04C125.524 26.584 127.648 24.032 135.304 24.032C142.964 24.032 145.084 26.584 145.084 34.04L145.068 55.892L145.064 55.896ZM37.2 49.912C35.148 48.424 34.224 46.224 34.224 42.892C34.224 38.704 35.504 33.544 37.628 31.324C39.116 29.832 41.24 29.124 44.148 29.124C48.26 29.124 53.292 30.204 55.416 32.388C56.836 33.808 57.476 35.792 57.476 38.56C57.476 42.536 56.34 48.14 53.856 50.48C52.44 51.76 50.528 52.324 47.836 52.324C44.156 52.324 39.532 51.468 37.2 49.912ZM55.28 58.712L54.78 62.544L65.476 63.864L70.544 22.452L59.852 21.136L59.352 25.152H58.116C56.516 22.316 52.228 18.48 44.148 18.48C32.88 18.48 24.588 26.784 23.096 38.132C22.9578 39.24 22.887 40.3554 22.884 41.472C22.884 52.324 30.256 61.268 41.736 62.544C42.376 62.604 43.012 62.624 43.652 62.616C48.472 62.616 52.088 60.56 53.932 58.716H55.276L55.28 58.712ZM297.24 46.456C288.664 46.456 285.828 43.62 285.828 35.036C285.828 26.448 288.668 23.528 297.24 23.528C305.816 23.528 308.652 26.436 308.652 35.036C308.652 43.632 305.816 46.456 297.24 46.456ZM242.24 46.456C233.66 46.456 230.828 43.62 230.828 35.036C230.828 26.448 233.66 23.528 242.236 23.528C250.812 23.528 253.652 26.436 253.652 35.036C253.652 43.632 250.812 46.456 242.236 46.456H242.24ZM188.652 46.456C180.08 46.456 177.244 43.62 177.244 35.036C177.244 26.448 180.08 23.528 188.652 23.528C197.224 23.528 200.068 26.436 200.068 35.036C200.068 43.632 197.228 46.456 188.652 46.456ZM6.968 0L0 55.812L11.376 57.2L18.232 1.384L6.968 0ZM309.148 51.852V55.892H319.848V14.104H309.148V18.152H307.588C305.884 15.88 301.564 12.9 295.736 12.9C282.976 12.9 274.264 22.608 274.264 35.04C274.264 47.468 282.98 57.108 295.736 57.108C301.552 57.108 305.872 54.128 307.588 51.856L309.148 51.852ZM188.652 12.896C174.476 12.896 165.692 22.604 165.692 35.036C165.692 47.464 174.476 57.104 188.652 57.104C202.828 57.104 211.64 47.452 211.64 35.036C211.64 22.616 202.848 12.896 188.652 12.896ZM254.288 51.852V55.892H264.988V0.48H253.652V18.148H252.092C250.392 15.876 246.56 12.896 240.752 12.896C227.992 12.896 219.272 22.604 219.272 35.036C219.272 47.464 227.992 57.104 240.752 57.104C246.56 57.104 251.096 54.124 252.728 51.852H254.288Z" fill="black"/>
</g>
<defs>
<clipPath id="clip0_7659_3490">
<rect width="320" height="64" fill="white"/>
</clipPath>
</defs>
</svg>
