<svg width="320" height="66" viewBox="0 0 320 66" fill="none" xmlns="http://www.w3.org/2000/svg">
<g clip-path="url(#clip0_7659_3502)">
<path d="M0 1.20703H35.3956V11.1873H22.8656V64.8176H12.6362V11.1873H0V1.20703ZM96.3469 9.65465C99.4009 12.6875 101.814 16.329 103.438 20.3538C105.061 24.3786 105.86 28.7013 105.786 33.0545C105.862 37.4098 105.064 41.7348 103.44 45.7618C101.817 49.7888 99.4024 53.4322 96.3469 56.4665C93.3753 59.5809 89.811 62.0391 85.8741 63.6893C81.9373 65.3394 77.7115 66.1465 73.4577 66.0606C69.2057 66.1462 64.9817 65.339 61.0468 63.6889C57.1119 62.0387 53.5497 59.5806 50.5803 56.4665C47.5355 53.427 45.1321 49.7813 43.5189 45.7546C41.9056 41.7278 41.1165 37.4055 41.2005 33.0545C41.1181 28.7056 41.908 24.3856 43.5212 20.361C45.1345 16.3364 47.5369 12.6927 50.5803 9.65465C53.5446 6.52966 57.1046 4.06038 61.0398 2.39972C64.9749 0.73906 69.2015 -0.0776273 73.4577 0.000232917C77.7157 -0.0778514 81.9441 0.738685 85.8812 2.39931C89.8183 4.05994 93.3803 6.52932 96.3469 9.65465ZM95.4974 33.0545C95.5836 30.0359 95.0649 27.0311 93.9733 24.2251C92.8816 21.4191 91.2401 18.8714 89.1498 16.7386C87.1065 14.6173 84.66 12.9468 81.9611 11.8301C79.2622 10.7134 76.3682 10.1743 73.4577 10.246C70.5592 10.1724 67.6766 10.7049 64.9864 11.8109C62.2962 12.917 59.8552 14.5732 57.8128 16.6782C55.7209 18.8104 54.0776 21.3578 52.984 24.1637C51.8903 26.9696 51.3695 29.9747 51.4534 32.9942C51.3678 36.0157 51.8879 39.0231 52.9816 41.8312C54.0753 44.6393 55.7195 47.1886 57.8128 49.3222C59.8543 51.4426 62.2988 53.1126 64.9957 54.2293C67.6925 55.346 70.5845 55.8856 73.4931 55.8148C76.4036 55.8865 79.2976 55.3474 81.9965 54.2307C84.6954 53.114 87.1419 51.4435 89.1852 49.3222C91.2706 47.185 92.9064 44.6339 93.992 41.8258C95.0775 39.0178 95.5898 36.0123 95.4974 32.9942V33.0545ZM148.957 7.24104C150.887 9.17862 152.406 11.5016 153.421 14.0656C154.436 16.6296 154.924 19.3798 154.856 22.1451C154.917 24.904 154.426 27.6466 153.411 30.2037C152.397 32.7608 150.881 35.0782 148.957 37.0128C147.037 38.9923 144.741 40.5488 142.21 41.5865C139.68 42.6242 136.969 43.1212 134.244 43.0469H128.97V64.8176H118.752V1.20703H134.244C136.968 1.13765 139.678 1.63691 142.208 2.67435C144.737 3.71179 147.034 5.26564 148.957 7.24104ZM144.638 22.0847C144.688 20.6271 144.455 19.1739 143.953 17.8089C143.451 16.4439 142.689 15.1942 141.712 14.1319C140.752 13.1021 139.591 12.2905 138.305 11.7499C137.018 11.2093 135.634 10.9518 134.244 10.9942H128.97V33.1752H134.244C135.633 33.2199 137.017 32.9647 138.304 32.4261C139.59 31.8876 140.752 31.0778 141.712 30.0496C142.691 28.9859 143.453 27.7342 143.955 26.367C144.458 24.9998 144.69 23.5443 144.638 22.0847ZM165.132 11.2235H177.78V64.8176H187.998V11.1873H200.575V1.20703H165.18L165.132 11.2235ZM261.479 9.65465C264.523 12.6927 266.925 16.3364 268.538 20.361C270.152 24.3856 270.941 28.7056 270.859 33.0545C270.943 37.4055 270.154 41.7278 268.541 45.7546C266.927 49.7813 264.524 53.427 261.479 56.4665C255.38 62.6153 247.16 66.0622 238.596 66.0622C230.032 66.0622 221.812 62.6153 215.713 56.4665C212.657 53.4322 210.243 49.7888 208.619 45.7618C206.996 41.7348 206.198 37.4098 206.274 33.0545C206.199 28.7013 206.998 24.3786 208.622 20.3538C210.245 16.329 212.659 12.6875 215.713 9.65465C221.812 3.50588 230.032 0.0589932 238.596 0.0589932C247.16 0.0589932 255.38 3.50588 261.479 9.65465ZM260.63 33.0545C260.716 30.0359 260.197 27.0311 259.106 24.2251C258.014 21.4191 256.372 18.8714 254.282 16.7386C250.075 12.575 244.45 10.2473 238.596 10.2473C232.742 10.2473 227.117 12.575 222.91 16.7386C220.818 18.8708 219.175 21.4181 218.081 24.2241C216.987 27.03 216.466 30.0351 216.55 33.0545C216.465 36.076 216.985 39.0834 218.079 41.8915C219.172 44.6996 220.816 47.249 222.91 49.3826C227.117 53.5462 232.742 55.8739 238.596 55.8739C244.45 55.8739 250.075 53.5462 254.282 49.3826C256.381 47.2414 258.028 44.6818 259.12 41.8626C260.212 39.0435 260.726 36.0249 260.63 32.9942V33.0545ZM320 22.1933C320.062 24.9523 319.57 27.6949 318.555 30.252C317.541 32.8091 316.025 35.1264 314.101 37.0611C312.181 39.0406 309.885 40.5971 307.355 41.6348C304.824 42.6725 302.113 43.1695 299.388 43.0951H294.114V64.8176H283.896V1.20703H299.388C302.112 1.13765 304.822 1.63691 307.352 2.67435C309.881 3.71179 312.178 5.26564 314.101 7.24104C316.023 9.17162 317.539 11.4848 318.554 14.0378C319.568 16.5909 320.06 19.3295 320 22.0847V22.1933ZM309.771 22.1933C309.821 20.7357 309.588 19.2825 309.085 17.9175C308.583 16.5525 307.822 15.3028 306.845 14.2405C305.885 13.2107 304.724 12.3991 303.437 11.8585C302.15 11.3179 300.767 11.0604 299.376 11.1028H294.102V33.1752H299.376C300.766 33.2199 302.149 32.9647 303.436 32.4261C304.723 31.8876 305.884 31.0778 306.845 30.0496C307.823 28.9859 308.586 27.7342 309.088 26.367C309.59 24.9998 309.822 23.5443 309.771 22.0847V22.1933Z" fill="black"/>
</g>
<defs>
<clipPath id="clip0_7659_3502">
<rect width="320" height="66" fill="white"/>
</clipPath>
</defs>
</svg>
